<svg width="680" height="67" viewBox="0 0 680 67" fill="none" xmlns="http://www.w3.org/2000/svg">
<path d="M0 24C0 10.7452 10.7452 0 24 0H304C317.255 0 328 10.7452 328 24V43C328 56.2548 317.255 67 304 67H24C10.7452 67 0 56.2548 0 43V24Z" fill="#0A3871"/>
<path d="M131.339 39H138.452V37.75H132.748V33.7955H137.998V32.5455H132.748V28.6136H138.362V27.3636H131.339V39ZM142.06 33.75C142.06 32.2273 143.004 31.3636 144.288 31.3636C145.532 31.3636 146.288 32.1761 146.288 33.5455V39H147.629V33.4545C147.629 31.2273 146.441 30.1591 144.674 30.1591C143.356 30.1591 142.538 30.75 142.129 31.6364H142.015V30.2727H140.719V39H142.06V33.75ZM153.624 39.1818C155.556 39.1818 156.829 38 157.056 36.4545H155.715C155.465 37.4091 154.67 37.9773 153.624 37.9773C152.033 37.9773 151.011 36.6591 151.011 34.6364C151.011 32.6591 152.056 31.3636 153.624 31.3636C154.806 31.3636 155.511 32.0909 155.715 32.8864H157.056C156.829 31.25 155.442 30.1591 153.602 30.1591C151.238 30.1591 149.67 32.0227 149.67 34.6818C149.67 37.2955 151.17 39.1818 153.624 39.1818ZM159.016 39H160.357V33.4773C160.357 32.2955 161.289 31.4318 162.562 31.4318C162.92 31.4318 163.289 31.5 163.38 31.5227V30.1591C163.227 30.1477 162.874 30.1364 162.675 30.1364C161.63 30.1364 160.721 30.7273 160.403 31.5909H160.312V30.2727H159.016V39ZM164.969 39H166.31V30.2727H164.969V39ZM165.651 28.8182C166.174 28.8182 166.606 28.4091 166.606 27.9091C166.606 27.4091 166.174 27 165.651 27C165.129 27 164.697 27.4091 164.697 27.9091C164.697 28.4091 165.129 28.8182 165.651 28.8182ZM168.766 42.2727H170.107V37.6591H170.221C170.516 38.1364 171.085 39.1818 172.766 39.1818C174.948 39.1818 176.471 37.4318 176.471 34.6591C176.471 31.9091 174.948 30.1591 172.744 30.1591C171.039 30.1591 170.516 31.2045 170.221 31.6591H170.062V30.2727H168.766V42.2727ZM170.085 34.6364C170.085 32.6818 170.948 31.3636 172.585 31.3636C174.289 31.3636 175.13 32.7955 175.13 34.6364C175.13 36.5 174.266 37.9773 172.585 37.9773C170.971 37.9773 170.085 36.6136 170.085 34.6364ZM182.312 30.2727H180.448V28.1818H179.107V30.2727H177.789V31.4091H179.107V36.8636C179.107 38.3864 180.335 39.1136 181.471 39.1136C181.971 39.1136 182.289 39.0227 182.471 38.9545L182.198 37.75C182.085 37.7727 181.903 37.8182 181.607 37.8182C181.016 37.8182 180.448 37.6364 180.448 36.5V31.4091H182.312V30.2727ZM186.897 39.2045C188.42 39.2045 189.215 38.3864 189.488 37.8182H189.556V39H190.897V33.25C190.897 30.4773 188.783 30.1591 187.67 30.1591C186.352 30.1591 184.852 30.6136 184.17 32.2045L185.442 32.6591C185.738 32.0227 186.437 31.3409 187.715 31.3409C188.948 31.3409 189.556 31.9943 189.556 33.1136V33.1591C189.556 33.8068 188.897 33.75 187.306 33.9545C185.687 34.1648 183.92 34.5227 183.92 36.5227C183.92 38.2273 185.238 39.2045 186.897 39.2045ZM187.102 38C186.033 38 185.261 37.5227 185.261 36.5909C185.261 35.5682 186.192 35.25 187.238 35.1136C187.806 35.0455 189.329 34.8864 189.556 34.6136V35.8409C189.556 36.9318 188.692 38 187.102 38ZM193.344 39H194.685V33.4773C194.685 32.2955 195.617 31.4318 196.89 31.4318C197.248 31.4318 197.617 31.5 197.708 31.5227V30.1591C197.555 30.1477 197.202 30.1364 197.004 30.1364C195.958 30.1364 195.049 30.7273 194.731 31.5909H194.64V30.2727H193.344V39Z" fill="white"/>
<path d="M352 24C352 10.7452 362.745 0 376 0H656C669.255 0 680 10.7452 680 24V43C680 56.2548 669.255 67 656 67H376C362.745 67 352 56.2548 352 43V24Z" fill="#D8DFE8"/>
<path d="M472.469 39C476.014 39 478.014 36.7955 478.014 33.1591C478.014 29.5455 476.014 27.3636 472.628 27.3636H468.878V39H472.469ZM470.287 37.75V28.6136H472.537C475.264 28.6136 476.651 30.3409 476.651 33.1591C476.651 36 475.264 37.75 472.378 37.75H470.287ZM483.855 39.1818C485.628 39.1818 486.923 38.2955 487.332 36.9773L486.037 36.6136C485.696 37.5227 484.906 37.9773 483.855 37.9773C482.281 37.9773 481.196 36.9602 481.134 35.0909H487.469V34.5227C487.469 31.2727 485.537 30.1591 483.719 30.1591C481.355 30.1591 479.787 32.0227 479.787 34.7045C479.787 37.3864 481.332 39.1818 483.855 39.1818ZM481.134 33.9318C481.224 32.5739 482.185 31.3636 483.719 31.3636C485.173 31.3636 486.105 32.4545 486.105 33.9318H481.134ZM495.69 32.2273C495.27 30.9886 494.327 30.1591 492.599 30.1591C490.759 30.1591 489.395 31.2045 489.395 32.6818C489.395 33.8864 490.111 34.6932 491.713 35.0682L493.168 35.4091C494.048 35.6136 494.463 36.0341 494.463 36.6364C494.463 37.3864 493.668 38 492.418 38C491.321 38 490.634 37.5284 490.395 36.5909L489.122 36.9091C489.435 38.392 490.656 39.1818 492.44 39.1818C494.469 39.1818 495.849 38.0739 495.849 36.5682C495.849 35.3523 495.088 34.5852 493.531 34.2045L492.236 33.8864C491.202 33.6307 490.736 33.2841 490.736 32.6136C490.736 31.8636 491.531 31.3182 492.599 31.3182C493.77 31.3182 494.253 31.9659 494.486 32.5682L495.69 32.2273ZM501.527 39.1818C503.3 39.1818 504.595 38.2955 505.004 36.9773L503.709 36.6136C503.368 37.5227 502.578 37.9773 501.527 37.9773C499.953 37.9773 498.868 36.9602 498.805 35.0909H505.141V34.5227C505.141 31.2727 503.209 30.1591 501.391 30.1591C499.027 30.1591 497.459 32.0227 497.459 34.7045C497.459 37.3864 499.004 39.1818 501.527 39.1818ZM498.805 33.9318C498.896 32.5739 499.857 31.3636 501.391 31.3636C502.845 31.3636 503.777 32.4545 503.777 33.9318H498.805ZM508.521 33.75C508.521 32.2273 509.464 31.3636 510.749 31.3636C511.993 31.3636 512.749 32.1761 512.749 33.5455V39H514.089V33.4545C514.089 31.2273 512.902 30.1591 511.135 30.1591C509.817 30.1591 508.999 30.75 508.589 31.6364H508.476V30.2727H507.18V39H508.521V33.75ZM520.085 39.1818C522.017 39.1818 523.29 38 523.517 36.4545H522.176C521.926 37.4091 521.131 37.9773 520.085 37.9773C518.494 37.9773 517.472 36.6591 517.472 34.6364C517.472 32.6591 518.517 31.3636 520.085 31.3636C521.267 31.3636 521.972 32.0909 522.176 32.8864H523.517C523.29 31.25 521.903 30.1591 520.062 30.1591C517.699 30.1591 516.131 32.0227 516.131 34.6818C516.131 37.2955 517.631 39.1818 520.085 39.1818ZM525.477 39H526.818V33.4773C526.818 32.2955 527.75 31.4318 529.023 31.4318C529.381 31.4318 529.75 31.5 529.841 31.5227V30.1591C529.688 30.1477 529.335 30.1364 529.136 30.1364C528.091 30.1364 527.182 30.7273 526.864 31.5909H526.773V30.2727H525.477V39ZM531.43 39H532.771V30.2727H531.43V39ZM532.112 28.8182C532.635 28.8182 533.067 28.4091 533.067 27.9091C533.067 27.4091 532.635 27 532.112 27C531.589 27 531.158 27.4091 531.158 27.9091C531.158 28.4091 531.589 28.8182 532.112 28.8182ZM535.227 42.2727H536.568V37.6591H536.682C536.977 38.1364 537.545 39.1818 539.227 39.1818C541.409 39.1818 542.932 37.4318 542.932 34.6591C542.932 31.9091 541.409 30.1591 539.205 30.1591C537.5 30.1591 536.977 31.2045 536.682 31.6591H536.523V30.2727H535.227V42.2727ZM536.545 34.6364C536.545 32.6818 537.409 31.3636 539.045 31.3636C540.75 31.3636 541.591 32.7955 541.591 34.6364C541.591 36.5 540.727 37.9773 539.045 37.9773C537.432 37.9773 536.545 36.6136 536.545 34.6364ZM548.773 30.2727H546.909V28.1818H545.568V30.2727H544.25V31.4091H545.568V36.8636C545.568 38.3864 546.795 39.1136 547.932 39.1136C548.432 39.1136 548.75 39.0227 548.932 38.9545L548.659 37.75C548.545 37.7727 548.364 37.8182 548.068 37.8182C547.477 37.8182 546.909 37.6364 546.909 36.5V31.4091H548.773V30.2727ZM553.358 39.2045C554.881 39.2045 555.676 38.3864 555.949 37.8182H556.017V39H557.358V33.25C557.358 30.4773 555.244 30.1591 554.131 30.1591C552.812 30.1591 551.312 30.6136 550.631 32.2045L551.903 32.6591C552.199 32.0227 552.898 31.3409 554.176 31.3409C555.409 31.3409 556.017 31.9943 556.017 33.1136V33.1591C556.017 33.8068 555.358 33.75 553.767 33.9545C552.148 34.1648 550.381 34.5227 550.381 36.5227C550.381 38.2273 551.699 39.2045 553.358 39.2045ZM553.562 38C552.494 38 551.722 37.5227 551.722 36.5909C551.722 35.5682 552.653 35.25 553.699 35.1136C554.267 35.0455 555.79 34.8864 556.017 34.6136V35.8409C556.017 36.9318 555.153 38 553.562 38ZM559.805 39H561.146V33.4773C561.146 32.2955 562.078 31.4318 563.351 31.4318C563.709 31.4318 564.078 31.5 564.169 31.5227V30.1591C564.016 30.1477 563.663 30.1364 563.464 30.1364C562.419 30.1364 561.51 30.7273 561.192 31.5909H561.101V30.2727H559.805V39Z" fill="#0A3871"/>
<path d="M376 1H656V-1H376V1ZM679 24V43H681V24H679ZM656 66H376V68H656V66ZM353 43V24H351V43H353ZM376 66C363.297 66 353 55.7025 353 43H351C351 56.8071 362.193 68 376 68V66ZM679 43C679 55.7025 668.703 66 656 66V68C669.807 68 681 56.8071 681 43H679ZM656 1C668.703 1 679 11.2975 679 24H681C681 10.1929 669.807 -1 656 -1V1ZM376 -1C362.193 -1 351 10.1929 351 24H353C353 11.2975 363.297 1 376 1V-1Z" fill="#0A3871"/>
</svg>
